<mxfile host="65bd71144e">
    <diagram id="Z9NfkE0Gaz2DqiLAO_H8" name="ページ1">
        <mxGraphModel dx="718" dy="520" grid="1" gridSize="10" guides="1" tooltips="1" connect="1" arrows="1" fold="1" page="1" pageScale="1" pageWidth="827" pageHeight="1169" math="0" shadow="0">
            <root>
                <mxCell id="0"/>
                <mxCell id="1" parent="0"/>
                <mxCell id="2" value="" style="rounded=1;whiteSpace=wrap;html=1;arcSize=13;" parent="1" vertex="1">
                    <mxGeometry x="297" y="132" width="40" height="260" as="geometry"/>
                </mxCell>
                <mxCell id="5" value="" style="rounded=1;whiteSpace=wrap;html=1;arcSize=13;" parent="1" vertex="1">
                    <mxGeometry x="347" y="132" width="40" height="260" as="geometry"/>
                </mxCell>
                <mxCell id="6" value="" style="rounded=1;whiteSpace=wrap;html=1;arcSize=13;" parent="1" vertex="1">
                    <mxGeometry x="397" y="132" width="40" height="260" as="geometry"/>
                </mxCell>
                <mxCell id="7" value="" style="rounded=1;whiteSpace=wrap;html=1;arcSize=13;rotation=-90;shadow=1;sketch=1;fillColor=none;" parent="1" vertex="1">
                    <mxGeometry x="347" y="82" width="40" height="160" as="geometry"/>
                </mxCell>
                <mxCell id="8" value="" style="rounded=1;whiteSpace=wrap;html=1;arcSize=13;rotation=-90;shadow=1;sketch=1;fillColor=none;" parent="1" vertex="1">
                    <mxGeometry x="347" y="132" width="40" height="160" as="geometry"/>
                </mxCell>
                <mxCell id="9" value="" style="rounded=1;whiteSpace=wrap;html=1;arcSize=13;rotation=-90;shadow=1;sketch=1;fillColor=none;" parent="1" vertex="1">
                    <mxGeometry x="347" y="232" width="40" height="160" as="geometry"/>
                </mxCell>
                <mxCell id="10" value="" style="rounded=1;whiteSpace=wrap;html=1;arcSize=13;rotation=-90;shadow=1;sketch=1;fillColor=none;" parent="1" vertex="1">
                    <mxGeometry x="347" y="182" width="40" height="160" as="geometry"/>
                </mxCell>
                <mxCell id="11" value="" style="rounded=1;whiteSpace=wrap;html=1;arcSize=13;rotation=-90;shadow=1;sketch=1;fillColor=none;" parent="1" vertex="1">
                    <mxGeometry x="347" y="282" width="40" height="160" as="geometry"/>
                </mxCell>
                <mxCell id="12" value="" style="rounded=1;whiteSpace=wrap;html=1;arcSize=13;rotation=-90;shadow=1;sketch=1;fillColor=none;" parent="1" vertex="1">
                    <mxGeometry x="347" y="22" width="40" height="160" as="geometry"/>
                </mxCell>
                <mxCell id="13" value="" style="rounded=1;whiteSpace=wrap;html=1;arcSize=13;" parent="1" vertex="1">
                    <mxGeometry x="237" y="132" width="40" height="260" as="geometry"/>
                </mxCell>
                <mxCell id="14" value="&lt;font style=&quot;font-size: 28px&quot;&gt;c0&amp;nbsp; c1&amp;nbsp; c2&lt;/font&gt;" style="text;html=1;strokeColor=none;fillColor=none;align=center;verticalAlign=middle;whiteSpace=wrap;rounded=0;shadow=1;sketch=1;" parent="1" vertex="1">
                    <mxGeometry x="290" y="87" width="150" height="30" as="geometry"/>
                </mxCell>
                <mxCell id="15" value="&lt;font style=&quot;font-size: 20px&quot;&gt;r0&lt;br&gt;&lt;br&gt;r1&lt;br&gt;&lt;br&gt;r2&lt;br&gt;&lt;br&gt;r3&lt;br&gt;&lt;br&gt;r4&lt;br&gt;&lt;/font&gt;" style="text;html=1;strokeColor=none;fillColor=none;align=center;verticalAlign=middle;whiteSpace=wrap;rounded=0;shadow=1;sketch=1;" parent="1" vertex="1">
                    <mxGeometry x="242" y="138" width="30" height="248" as="geometry"/>
                </mxCell>
                <mxCell id="21" style="edgeStyle=none;html=1;entryX=0.5;entryY=1;entryDx=0;entryDy=0;fontSize=23;" parent="1" source="19" target="12" edge="1">
                    <mxGeometry relative="1" as="geometry"/>
                </mxCell>
                <mxCell id="19" value="&lt;font style=&quot;font-size: 23px&quot;&gt;df.columns&lt;/font&gt;" style="text;html=1;strokeColor=none;fillColor=none;align=center;verticalAlign=middle;whiteSpace=wrap;rounded=0;shadow=1;sketch=1;fontSize=28;" parent="1" vertex="1">
                    <mxGeometry x="530" y="87" width="130" height="30" as="geometry"/>
                </mxCell>
                <mxCell id="24" style="edgeStyle=none;html=1;entryX=0.5;entryY=0;entryDx=0;entryDy=0;fontSize=23;" parent="1" source="22" target="13" edge="1">
                    <mxGeometry relative="1" as="geometry"/>
                </mxCell>
                <mxCell id="22" value="df.index" style="text;html=1;strokeColor=none;fillColor=none;align=center;verticalAlign=middle;whiteSpace=wrap;rounded=0;shadow=1;sketch=1;fontSize=23;" parent="1" vertex="1">
                    <mxGeometry x="172" y="80.5" width="100" height="26" as="geometry"/>
                </mxCell>
                <mxCell id="26" value="&lt;font style=&quot;font-size: 28px&quot;&gt;c0&amp;nbsp; c1&amp;nbsp; c2&lt;/font&gt;" style="text;html=1;strokeColor=none;fillColor=none;align=center;verticalAlign=middle;whiteSpace=wrap;rounded=0;shadow=1;sketch=1;" parent="1" vertex="1">
                    <mxGeometry x="292" y="40" width="150" height="30" as="geometry"/>
                </mxCell>
                <mxCell id="27" value="&lt;font style=&quot;font-size: 20px&quot;&gt;r0&lt;br&gt;&lt;br&gt;r1&lt;br&gt;&lt;br&gt;r2&lt;br&gt;&lt;br&gt;r3&lt;br&gt;&lt;br&gt;r4&lt;br&gt;&lt;/font&gt;" style="text;html=1;strokeColor=none;fillColor=none;align=center;verticalAlign=middle;whiteSpace=wrap;rounded=0;shadow=1;sketch=1;" parent="1" vertex="1">
                    <mxGeometry x="200" y="138" width="30" height="248" as="geometry"/>
                </mxCell>
                <mxCell id="28" value="" style="ellipse;whiteSpace=wrap;html=1;aspect=fixed;shadow=1;sketch=1;fontSize=23;fillColor=none;" parent="1" vertex="1">
                    <mxGeometry x="242" y="342" width="30" height="30" as="geometry"/>
                </mxCell>
                <mxCell id="29" value="" style="ellipse;whiteSpace=wrap;html=1;aspect=fixed;shadow=1;sketch=1;fontSize=23;fillColor=none;" parent="1" vertex="1">
                    <mxGeometry x="242" y="297" width="30" height="30" as="geometry"/>
                </mxCell>
                <mxCell id="30" value="" style="ellipse;whiteSpace=wrap;html=1;aspect=fixed;shadow=1;sketch=1;fontSize=23;fillColor=none;" parent="1" vertex="1">
                    <mxGeometry x="242" y="247" width="30" height="30" as="geometry"/>
                </mxCell>
                <mxCell id="31" value="" style="ellipse;whiteSpace=wrap;html=1;aspect=fixed;shadow=1;sketch=1;fontSize=23;fillColor=none;" parent="1" vertex="1">
                    <mxGeometry x="242" y="197" width="30" height="30" as="geometry"/>
                </mxCell>
                <mxCell id="32" value="" style="ellipse;whiteSpace=wrap;html=1;aspect=fixed;shadow=1;sketch=1;fontSize=23;fillColor=none;" parent="1" vertex="1">
                    <mxGeometry x="242" y="152" width="30" height="30" as="geometry"/>
                </mxCell>
                <mxCell id="33" value="" style="ellipse;whiteSpace=wrap;html=1;aspect=fixed;shadow=1;sketch=1;fontSize=23;fillColor=none;" parent="1" vertex="1">
                    <mxGeometry x="297" y="80.5" width="43" height="43" as="geometry"/>
                </mxCell>
                <mxCell id="34" value="" style="ellipse;whiteSpace=wrap;html=1;aspect=fixed;shadow=1;sketch=1;fontSize=23;fillColor=none;" parent="1" vertex="1">
                    <mxGeometry x="343.5" y="82" width="43" height="43" as="geometry"/>
                </mxCell>
                <mxCell id="35" value="" style="ellipse;whiteSpace=wrap;html=1;aspect=fixed;shadow=1;sketch=1;fontSize=23;fillColor=none;" parent="1" vertex="1">
                    <mxGeometry x="387" y="82" width="43" height="43" as="geometry"/>
                </mxCell>
                <mxCell id="52" value="" style="endArrow=none;dashed=1;html=1;dashPattern=1 3;strokeWidth=2;fontSize=23;" parent="1" edge="1">
                    <mxGeometry width="50" height="50" relative="1" as="geometry">
                        <mxPoint x="190" y="190" as="sourcePoint"/>
                        <mxPoint x="480" y="190" as="targetPoint"/>
                    </mxGeometry>
                </mxCell>
                <mxCell id="53" value="" style="endArrow=none;dashed=1;html=1;dashPattern=1 3;strokeWidth=2;fontSize=23;" parent="1" edge="1">
                    <mxGeometry width="50" height="50" relative="1" as="geometry">
                        <mxPoint x="188" y="237" as="sourcePoint"/>
                        <mxPoint x="478" y="237" as="targetPoint"/>
                    </mxGeometry>
                </mxCell>
                <mxCell id="54" value="" style="endArrow=none;dashed=1;html=1;dashPattern=1 3;strokeWidth=2;fontSize=23;" parent="1" edge="1">
                    <mxGeometry width="50" height="50" relative="1" as="geometry">
                        <mxPoint x="191" y="286" as="sourcePoint"/>
                        <mxPoint x="481" y="286" as="targetPoint"/>
                    </mxGeometry>
                </mxCell>
                <mxCell id="55" value="" style="endArrow=none;dashed=1;html=1;dashPattern=1 3;strokeWidth=2;fontSize=23;" parent="1" edge="1">
                    <mxGeometry width="50" height="50" relative="1" as="geometry">
                        <mxPoint x="192" y="337" as="sourcePoint"/>
                        <mxPoint x="482" y="337" as="targetPoint"/>
                    </mxGeometry>
                </mxCell>
                <mxCell id="56" value="" style="endArrow=none;dashed=1;html=1;dashPattern=1 3;strokeWidth=2;fontSize=23;" parent="1" edge="1">
                    <mxGeometry width="50" height="50" relative="1" as="geometry">
                        <mxPoint x="191" y="140" as="sourcePoint"/>
                        <mxPoint x="481" y="140" as="targetPoint"/>
                    </mxGeometry>
                </mxCell>
                <mxCell id="57" value="&lt;font style=&quot;font-size: 20px&quot;&gt;s0&lt;br&gt;&lt;br&gt;s1&lt;br&gt;&lt;br&gt;s2&lt;br&gt;&lt;br&gt;s3&lt;br&gt;&lt;br&gt;s4&lt;br&gt;&lt;/font&gt;" style="text;html=1;strokeColor=none;fillColor=none;align=center;verticalAlign=middle;whiteSpace=wrap;rounded=0;shadow=1;sketch=1;" parent="1" vertex="1">
                    <mxGeometry x="160" y="110" width="30" height="248" as="geometry"/>
                </mxCell>
                <mxCell id="91" style="edgeStyle=none;html=1;entryX=0.55;entryY=0.144;entryDx=0;entryDy=0;entryPerimeter=0;startArrow=none;" edge="1" parent="1" source="94" target="10">
                    <mxGeometry relative="1" as="geometry"/>
                </mxCell>
                <mxCell id="67" value="df.at[ r2 , c0 ]" style="text;html=1;strokeColor=none;fillColor=none;align=center;verticalAlign=middle;whiteSpace=wrap;rounded=0;shadow=1;sketch=1;fontSize=23;" parent="1" vertex="1">
                    <mxGeometry x="480" y="364" width="180" height="30" as="geometry"/>
                </mxCell>
                <mxCell id="70" value="&lt;font color=&quot;#ff3399&quot;&gt;&amp;lt;pd.DataFrame&amp;gt;&lt;/font&gt;" style="text;html=1;strokeColor=none;fillColor=none;align=center;verticalAlign=middle;whiteSpace=wrap;rounded=0;shadow=1;sketch=1;fontSize=23;" parent="1" vertex="1">
                    <mxGeometry x="502.5" y="10" width="185" height="30" as="geometry"/>
                </mxCell>
                <mxCell id="72" value="df.iat[ r1, c2 ]" style="text;html=1;strokeColor=none;fillColor=none;align=center;verticalAlign=middle;whiteSpace=wrap;rounded=0;shadow=1;sketch=1;fontSize=23;" parent="1" vertex="1">
                    <mxGeometry x="515" y="267" width="160" height="30" as="geometry"/>
                </mxCell>
                <mxCell id="78" value="&lt;font color=&quot;#ff3399&quot;&gt;&amp;lt;str&amp;gt;, &amp;lt;int&amp;gt;, &amp;lt;float&amp;gt;&lt;/font&gt;" style="text;html=1;strokeColor=none;fillColor=none;align=center;verticalAlign=middle;whiteSpace=wrap;rounded=0;shadow=1;sketch=1;fontSize=23;" parent="1" vertex="1">
                    <mxGeometry x="463.5" y="297" width="263" height="30" as="geometry"/>
                </mxCell>
                <mxCell id="92" value="" style="ellipse;whiteSpace=wrap;html=1;aspect=fixed;shadow=1;sketch=1;fontSize=23;fillColor=none;" vertex="1" parent="1">
                    <mxGeometry x="555" y="364" width="30" height="30" as="geometry"/>
                </mxCell>
                <mxCell id="93" value="" style="ellipse;whiteSpace=wrap;html=1;aspect=fixed;shadow=1;sketch=1;fontSize=23;fillColor=none;" vertex="1" parent="1">
                    <mxGeometry x="600" y="364" width="30" height="30" as="geometry"/>
                </mxCell>
                <mxCell id="94" value="" style="rounded=1;whiteSpace=wrap;html=1;strokeWidth=2;fillWeight=4;hachureGap=8;hachureAngle=45;fillColor=#1ba1e2;sketch=1;" vertex="1" parent="1">
                    <mxGeometry x="302" y="247" width="33" height="30" as="geometry"/>
                </mxCell>
                <mxCell id="96" value="" style="rounded=1;whiteSpace=wrap;html=1;strokeWidth=2;fillWeight=4;hachureGap=8;hachureAngle=45;fillColor=#1ba1e2;sketch=1;" vertex="1" parent="1">
                    <mxGeometry x="400.5" y="197" width="33" height="30" as="geometry"/>
                </mxCell>
                <mxCell id="97" style="edgeStyle=none;html=1;entryX=0.545;entryY=0.433;entryDx=0;entryDy=0;entryPerimeter=0;strokeWidth=5;" edge="1" parent="1" source="67" target="94">
                    <mxGeometry relative="1" as="geometry"/>
                </mxCell>
                <mxCell id="73" style="edgeStyle=none;html=1;entryX=0.5;entryY=0.831;entryDx=0;entryDy=0;entryPerimeter=0;strokeWidth=4;endSize=10;" parent="1" source="72" target="8" edge="1">
                    <mxGeometry relative="1" as="geometry"/>
                </mxCell>
                <mxCell id="98" value="&lt;font color=&quot;#ff3399&quot;&gt;&amp;lt;str&amp;gt;, &amp;lt;int&amp;gt;, &amp;lt;float&amp;gt;&lt;/font&gt;" style="text;html=1;strokeColor=none;fillColor=none;align=center;verticalAlign=middle;whiteSpace=wrap;rounded=0;shadow=1;sketch=1;fontSize=23;" vertex="1" parent="1">
                    <mxGeometry x="460" y="404" width="263" height="30" as="geometry"/>
                </mxCell>
                <mxCell id="102" value="" style="rounded=1;whiteSpace=wrap;html=1;fontSize=18;" vertex="1" parent="1">
                    <mxGeometry x="300" y="470" width="40" height="260" as="geometry"/>
                </mxCell>
                <mxCell id="103" value="" style="rounded=1;whiteSpace=wrap;html=1;arcSize=13;" vertex="1" parent="1">
                    <mxGeometry x="250" y="470" width="40" height="260" as="geometry"/>
                </mxCell>
                <mxCell id="104" value="&lt;font style=&quot;font-size: 20px&quot;&gt;r0&lt;br&gt;&lt;br&gt;r1&lt;br&gt;&lt;br&gt;r2&lt;br&gt;&lt;br&gt;r3&lt;br&gt;&lt;br&gt;r4&lt;br&gt;&lt;/font&gt;" style="text;html=1;strokeColor=none;fillColor=none;align=center;verticalAlign=middle;whiteSpace=wrap;rounded=0;shadow=1;sketch=1;" vertex="1" parent="1">
                    <mxGeometry x="255" y="476" width="30" height="248" as="geometry"/>
                </mxCell>
                <mxCell id="105" value="" style="ellipse;whiteSpace=wrap;html=1;aspect=fixed;shadow=1;sketch=1;fontSize=23;fillColor=none;" vertex="1" parent="1">
                    <mxGeometry x="255" y="680" width="30" height="30" as="geometry"/>
                </mxCell>
                <mxCell id="106" value="" style="ellipse;whiteSpace=wrap;html=1;aspect=fixed;shadow=1;sketch=1;fontSize=23;fillColor=none;" vertex="1" parent="1">
                    <mxGeometry x="255" y="635" width="30" height="30" as="geometry"/>
                </mxCell>
                <mxCell id="107" value="" style="ellipse;whiteSpace=wrap;html=1;aspect=fixed;shadow=1;sketch=1;fontSize=23;fillColor=none;" vertex="1" parent="1">
                    <mxGeometry x="255" y="585" width="30" height="30" as="geometry"/>
                </mxCell>
                <mxCell id="108" value="" style="ellipse;whiteSpace=wrap;html=1;aspect=fixed;shadow=1;sketch=1;fontSize=23;fillColor=none;" vertex="1" parent="1">
                    <mxGeometry x="255" y="535" width="30" height="30" as="geometry"/>
                </mxCell>
                <mxCell id="109" value="" style="ellipse;whiteSpace=wrap;html=1;aspect=fixed;shadow=1;sketch=1;fontSize=23;fillColor=none;" vertex="1" parent="1">
                    <mxGeometry x="255" y="490" width="30" height="30" as="geometry"/>
                </mxCell>
                <mxCell id="110" value="&lt;font style=&quot;font-size: 32px&quot;&gt;&lt;b&gt;df&lt;/b&gt;&lt;/font&gt;" style="text;html=1;strokeColor=none;fillColor=none;align=center;verticalAlign=middle;whiteSpace=wrap;rounded=0;fontSize=18;" vertex="1" parent="1">
                    <mxGeometry x="80" y="30" width="60" height="30" as="geometry"/>
                </mxCell>
                <mxCell id="111" value="&lt;span style=&quot;font-size: 32px&quot;&gt;&lt;b&gt;ds&lt;/b&gt;&lt;/span&gt;" style="text;html=1;strokeColor=none;fillColor=none;align=center;verticalAlign=middle;whiteSpace=wrap;rounded=0;fontSize=18;" vertex="1" parent="1">
                    <mxGeometry x="80" y="450" width="60" height="30" as="geometry"/>
                </mxCell>
                <mxCell id="112" value="&lt;font color=&quot;#ff3399&quot;&gt;&amp;lt;pd.Series&amp;gt;&lt;/font&gt;" style="text;html=1;strokeColor=none;fillColor=none;align=center;verticalAlign=middle;whiteSpace=wrap;rounded=0;shadow=1;sketch=1;fontSize=23;" vertex="1" parent="1">
                    <mxGeometry x="52" y="480" width="120" height="30" as="geometry"/>
                </mxCell>
                <mxCell id="113" value="&lt;font style=&quot;font-size: 20px&quot;&gt;s0&lt;br&gt;&lt;br&gt;s1&lt;br&gt;&lt;br&gt;s2&lt;br&gt;&lt;br&gt;s3&lt;br&gt;&lt;br&gt;s4&lt;br&gt;&lt;/font&gt;" style="text;html=1;strokeColor=none;fillColor=none;align=center;verticalAlign=middle;whiteSpace=wrap;rounded=0;shadow=1;sketch=1;" vertex="1" parent="1">
                    <mxGeometry x="160" y="450" width="30" height="248" as="geometry"/>
                </mxCell>
                <mxCell id="114" value="" style="endArrow=none;dashed=1;html=1;dashPattern=1 3;strokeWidth=2;fontSize=23;" edge="1" parent="1">
                    <mxGeometry width="50" height="50" relative="1" as="geometry">
                        <mxPoint x="190" y="528" as="sourcePoint"/>
                        <mxPoint x="360" y="528" as="targetPoint"/>
                    </mxGeometry>
                </mxCell>
                <mxCell id="115" value="" style="endArrow=none;dashed=1;html=1;dashPattern=1 3;strokeWidth=2;fontSize=23;" edge="1" parent="1">
                    <mxGeometry width="50" height="50" relative="1" as="geometry">
                        <mxPoint x="190" y="576" as="sourcePoint"/>
                        <mxPoint x="360" y="576" as="targetPoint"/>
                    </mxGeometry>
                </mxCell>
                <mxCell id="117" value="" style="endArrow=none;dashed=1;html=1;dashPattern=1 3;strokeWidth=2;fontSize=23;" edge="1" parent="1">
                    <mxGeometry width="50" height="50" relative="1" as="geometry">
                        <mxPoint x="190" y="672" as="sourcePoint"/>
                        <mxPoint x="360" y="672" as="targetPoint"/>
                    </mxGeometry>
                </mxCell>
                <mxCell id="119" value="" style="endArrow=none;dashed=1;html=1;dashPattern=1 3;strokeWidth=2;fontSize=23;" edge="1" parent="1">
                    <mxGeometry width="50" height="50" relative="1" as="geometry">
                        <mxPoint x="190" y="480" as="sourcePoint"/>
                        <mxPoint x="360" y="480" as="targetPoint"/>
                    </mxGeometry>
                </mxCell>
                <mxCell id="120" value="&lt;font style=&quot;font-size: 20px&quot;&gt;r0&lt;br&gt;&lt;br&gt;r1&lt;br&gt;&lt;br&gt;r2&lt;br&gt;&lt;br&gt;r3&lt;br&gt;&lt;br&gt;r4&lt;br&gt;&lt;/font&gt;" style="text;html=1;strokeColor=none;fillColor=none;align=center;verticalAlign=middle;whiteSpace=wrap;rounded=0;shadow=1;sketch=1;" vertex="1" parent="1">
                    <mxGeometry x="212" y="476" width="30" height="248" as="geometry"/>
                </mxCell>
                <mxCell id="122" value="" style="endArrow=none;dashed=1;html=1;dashPattern=1 3;strokeWidth=2;fontSize=23;" edge="1" parent="1">
                    <mxGeometry width="50" height="50" relative="1" as="geometry">
                        <mxPoint x="190" y="626" as="sourcePoint"/>
                        <mxPoint x="360" y="626" as="targetPoint"/>
                    </mxGeometry>
                </mxCell>
                <mxCell id="123" value="" style="rounded=1;whiteSpace=wrap;html=1;strokeWidth=2;fillWeight=4;hachureGap=8;hachureAngle=45;fillColor=#1ba1e2;sketch=1;" vertex="1" parent="1">
                    <mxGeometry x="304" y="585" width="33" height="30" as="geometry"/>
                </mxCell>
                <mxCell id="127" style="edgeStyle=none;html=1;fontSize=32;strokeWidth=5;" edge="1" parent="1" source="124">
                    <mxGeometry relative="1" as="geometry">
                        <mxPoint x="321" y="600" as="targetPoint"/>
                    </mxGeometry>
                </mxCell>
                <mxCell id="124" value="ds.at[ r2 ]" style="text;html=1;strokeColor=none;fillColor=none;align=center;verticalAlign=middle;whiteSpace=wrap;rounded=0;shadow=1;sketch=1;fontSize=23;" vertex="1" parent="1">
                    <mxGeometry x="460" y="585" width="130" height="30" as="geometry"/>
                </mxCell>
                <mxCell id="125" value="" style="ellipse;whiteSpace=wrap;html=1;aspect=fixed;shadow=1;sketch=1;fontSize=23;fillColor=none;" vertex="1" parent="1">
                    <mxGeometry x="535" y="585" width="30" height="30" as="geometry"/>
                </mxCell>
                <mxCell id="128" value="&lt;font color=&quot;#ff3399&quot;&gt;&amp;lt;str&amp;gt;, &amp;lt;int&amp;gt;, &amp;lt;float&amp;gt;&lt;/font&gt;" style="text;html=1;strokeColor=none;fillColor=none;align=center;verticalAlign=middle;whiteSpace=wrap;rounded=0;shadow=1;sketch=1;fontSize=23;" vertex="1" parent="1">
                    <mxGeometry x="386.5" y="620" width="263" height="30" as="geometry"/>
                </mxCell>
                <mxCell id="129" value="" style="rounded=1;whiteSpace=wrap;html=1;strokeWidth=2;fillWeight=4;hachureGap=8;hachureAngle=45;fillColor=#1ba1e2;sketch=1;" vertex="1" parent="1">
                    <mxGeometry x="304" y="680" width="33" height="30" as="geometry"/>
                </mxCell>
                <mxCell id="131" style="edgeStyle=none;html=1;fontSize=32;strokeWidth=5;" edge="1" parent="1" source="130">
                    <mxGeometry relative="1" as="geometry">
                        <mxPoint x="321" y="695" as="targetPoint"/>
                    </mxGeometry>
                </mxCell>
                <mxCell id="130" value="df.iat[ r4 ]" style="text;html=1;strokeColor=none;fillColor=none;align=center;verticalAlign=middle;whiteSpace=wrap;rounded=0;shadow=1;sketch=1;fontSize=23;" vertex="1" parent="1">
                    <mxGeometry x="460" y="680" width="130" height="30" as="geometry"/>
                </mxCell>
                <mxCell id="132" value="&lt;font color=&quot;#ff3399&quot;&gt;&amp;lt;str&amp;gt;, &amp;lt;int&amp;gt;, &amp;lt;float&amp;gt;&lt;/font&gt;" style="text;html=1;strokeColor=none;fillColor=none;align=center;verticalAlign=middle;whiteSpace=wrap;rounded=0;shadow=1;sketch=1;fontSize=23;" vertex="1" parent="1">
                    <mxGeometry x="393.5" y="724" width="263" height="30" as="geometry"/>
                </mxCell>
            </root>
        </mxGraphModel>
    </diagram>
</mxfile>
